<svg width="586" height="178" viewBox="0 0 586 178" fill="none" xmlns="http://www.w3.org/2000/svg">
<path d="M28.312 121V28.456H53.528C62.6587 28.456 70.424 29.864 76.824 32.68C83.3093 35.496 88.5147 39.208 92.44 43.816C96.3653 48.424 99.224 53.544 101.016 59.176C102.893 64.7227 103.832 70.2693 103.832 75.816C103.832 82.8133 102.595 89.0853 100.12 94.632C97.7307 100.179 94.4027 104.915 90.136 108.84C85.8693 112.765 80.9627 115.795 75.416 117.928C69.9547 119.976 64.152 121 58.008 121H28.312ZM40.728 109.096H55.576C60.696 109.096 65.3893 108.328 69.656 106.792C74.008 105.256 77.7627 103.037 80.92 100.136C84.1627 97.2347 86.68 93.6933 88.472 89.512C90.264 85.2453 91.16 80.424 91.16 75.048C91.16 69.3307 90.2213 64.3387 88.344 60.072C86.4667 55.72 83.9067 52.0933 80.664 49.192C77.4213 46.2907 73.752 44.1147 69.656 42.664C65.56 41.128 61.2507 40.36 56.728 40.36H40.728V109.096ZM132.367 68.008L133.519 83.368L132.879 81.32C134.244 78.0773 136.207 75.3467 138.767 73.128C141.412 70.824 144.143 69.0747 146.959 67.88C149.86 66.6 152.378 65.96 154.511 65.96L153.871 77.736C149.86 77.48 146.319 78.248 143.247 80.04C140.26 81.832 137.871 84.2213 136.079 87.208C134.372 90.1947 133.519 93.3947 133.519 96.808V121H121.743V68.008H132.367ZM190.634 122.28C185.685 122.28 181.162 121.213 177.066 119.08C173.055 116.947 169.855 113.832 167.466 109.736C165.162 105.555 164.01 100.477 164.01 94.504C164.01 88.616 165.247 83.5387 167.722 79.272C170.197 74.92 173.482 71.592 177.578 69.288C181.759 66.984 186.325 65.832 191.274 65.832C196.223 65.832 200.405 66.984 203.818 69.288C207.231 71.5067 209.834 74.152 211.626 77.224L210.858 79.272L212.01 68.008H223.018V121H211.114V107.176L212.394 110.248C212.053 111.101 211.285 112.211 210.09 113.576C208.981 114.856 207.445 116.179 205.482 117.544C203.605 118.909 201.429 120.061 198.954 121C196.479 121.853 193.706 122.28 190.634 122.28ZM193.834 112.424C196.821 112.424 199.509 111.869 201.898 110.76C204.287 109.651 206.25 108.115 207.786 106.152C209.407 104.104 210.517 101.672 211.114 98.856V88.488C210.431 85.928 209.237 83.7093 207.53 81.832C205.823 79.8693 203.775 78.376 201.386 77.352C198.997 76.2427 196.351 75.688 193.45 75.688C190.293 75.688 187.391 76.456 184.746 77.992C182.101 79.528 179.967 81.6613 178.346 84.392C176.81 87.1227 176.042 90.3227 176.042 93.992C176.042 97.4053 176.853 100.52 178.474 103.336C180.095 106.152 182.271 108.371 185.002 109.992C187.733 111.613 190.677 112.424 193.834 112.424ZM254.242 68.008L255.266 79.912L254.754 78.888C256.717 74.8773 259.49 71.72 263.074 69.416C266.743 67.112 270.925 65.96 275.618 65.96C278.605 65.96 281.25 66.4293 283.554 67.368C285.858 68.3067 287.735 69.672 289.186 71.464C290.722 73.1707 291.703 75.304 292.13 77.864L291.49 78.248C293.538 74.408 296.354 71.4213 299.938 69.288C303.607 67.0693 307.447 65.96 311.458 65.96C316.663 65.96 320.759 67.4533 323.746 70.44C326.818 73.3413 328.397 77.1387 328.482 81.832V121H316.578V86.056C316.493 83.3253 315.81 81.064 314.53 79.272C313.335 77.3947 311.202 76.3707 308.13 76.2C305.058 76.2 302.285 77.1387 299.81 79.016C297.421 80.8933 295.543 83.3253 294.178 86.312C292.813 89.2133 292.087 92.3707 292.002 95.784V121H280.098V86.056C280.013 83.3253 279.287 81.064 277.922 79.272C276.642 77.3947 274.466 76.3707 271.394 76.2C268.237 76.2 265.463 77.1387 263.074 79.016C260.685 80.8933 258.807 83.3253 257.442 86.312C256.162 89.2987 255.522 92.4987 255.522 95.912V121H243.618V68.008H254.242ZM371.259 122.28C366.31 122.28 361.787 121.213 357.691 119.08C353.68 116.947 350.48 113.832 348.091 109.736C345.787 105.555 344.635 100.477 344.635 94.504C344.635 88.616 345.872 83.5387 348.347 79.272C350.822 74.92 354.107 71.592 358.203 69.288C362.384 66.984 366.95 65.832 371.899 65.832C376.848 65.832 381.03 66.984 384.443 69.288C387.856 71.5067 390.459 74.152 392.251 77.224L391.483 79.272L392.635 68.008H403.643V121H391.739V107.176L393.019 110.248C392.678 111.101 391.91 112.211 390.715 113.576C389.606 114.856 388.07 116.179 386.107 117.544C384.23 118.909 382.054 120.061 379.579 121C377.104 121.853 374.331 122.28 371.259 122.28ZM374.459 112.424C377.446 112.424 380.134 111.869 382.523 110.76C384.912 109.651 386.875 108.115 388.411 106.152C390.032 104.104 391.142 101.672 391.739 98.856V88.488C391.056 85.928 389.862 83.7093 388.155 81.832C386.448 79.8693 384.4 78.376 382.011 77.352C379.622 76.2427 376.976 75.688 374.075 75.688C370.918 75.688 368.016 76.456 365.371 77.992C362.726 79.528 360.592 81.6613 358.971 84.392C357.435 87.1227 356.667 90.3227 356.667 93.992C356.667 97.4053 357.478 100.52 359.099 103.336C360.72 106.152 362.896 108.371 365.627 109.992C368.358 111.613 371.302 112.424 374.459 112.424ZM439.731 65.704L439.347 70.312L441.011 68.008L478.899 28.456H494.899L456.627 68.136L497.075 121H481.331L447.539 76.072L439.731 83.624V121H427.187V28.456H439.731V65.704ZM527.886 123.048C523.107 123.048 519.139 121.597 515.982 118.696C512.91 115.709 511.289 111.869 511.118 107.176V68.008H523.022V102.952C523.193 105.853 524.003 108.2 525.454 109.992C526.99 111.784 529.379 112.723 532.622 112.808C535.609 112.808 538.254 111.955 540.558 110.248C542.947 108.456 544.867 106.067 546.318 103.08C547.769 100.008 548.494 96.552 548.494 92.712V68.008H560.398V121H549.518L548.494 107.944L549.134 110.248C548.11 112.723 546.531 114.941 544.398 116.904C542.35 118.781 539.918 120.275 537.102 121.384C534.286 122.493 531.214 123.048 527.886 123.048Z" fill="white"/>
</svg>
